<?xml version="1.0" encoding="utf-8"?>
<svg version="1.1" id="Layer_1" xmlns="http://www.w3.org/2000/svg" x="0px" y="0px" width="100%" viewBox="0 0 1372 430" enable-background="new 0 0 1372 430">
  <path fill="#FD0100" opacity="1.000000" stroke="none" d="M 1373 291.768 C 1365.8 300.715 1357.6 305.413 1347.24 304.701 C 1339.51 304.169 1333.23 300.041 1327.55 294.698 C 1313.99 281.931 1305.81 264.744 1300.72 244.916 C 1295.99 226.49 1292.04 207.618 1283.32 191.05 C 1274.32 173.941 1261.8 163.805 1244.87 164.548 C 1232.62 165.087 1221.74 171.459 1211.99 180.498 C 1200.66 190.989 1192.29 204.709 1183.56 218.127 C 1177.6 227.272 1170.94 235.923 1161.04 238.959 C 1148.51 242.797 1137.39 239.605 1126.9 230.202 C 1119.33 223.414 1116.48 213.457 1112.51 204.124 C 1106.66 190.384 1089.31 181.5 1077.72 186.306 C 1067.34 190.605 1064.4 202.381 1065.93 212.3 C 1069.02 232.403 1073.76 252.125 1077.16 272.171 C 1080.71 293.143 1077.61 312.267 1064.71 328.132 C 1051.7 344.139 1030.43 338.257 1021.4 322.681 C 1011.76 306.045 1011.93 287.898 1015.94 269.299 C 1018.68 256.602 1022.77 244.247 1024.63 231.391 C 1025.88 222.763 1025.93 212.811 1023.58 204.71 C 1019.16 189.443 1008.62 187.973 996.709 195.358 C 988.097 200.699 984.281 210.976 984.691 221.796 C 985.223 235.856 987.472 249.903 989.776 263.758 C 993.277 284.816 998.029 305.579 1001.18 326.703 C 1003.8 344.314 1005.18 362.378 1002.28 380.158 C 999.465 397.462 993.539 413.132 980.144 422.199 C 969.25 429.575 954.373 428.321 944.185 417.177 C 934.71 406.813 927.387 394.544 926.117 379.015 C 925.129 366.939 924.953 354.172 927.105 342.443 C 930.873 321.897 936.431 301.807 941.746 281.724 C 947.445 260.193 951.677 238.374 950.225 215.666 C 948.743 192.475 942.559 171.871 923.802 161.081 C 911.885 154.227 899.414 154.435 886.796 159.099 C 870.401 165.156 855.987 175.86 841.47 186.454 C 826.268 197.546 811.19 208.891 793.707 214.387 C 777.474 219.49 762.527 216.129 749.391 204.096 C 738.894 194.48 729.56 183.009 719.368 172.872 C 703.757 157.345 686.032 153.282 666.67 169.202 C 655.249 178.593 644.952 189.985 633.924 200.114 C 620.874 212.101 606.158 218.019 589.689 219.42 C 564.224 221.584 543.899 207.95 524.077 191.252 C 516.021 184.466 507.459 178.415 498.71 173.034 C 481.559 162.486 464.956 165.918 449.099 177.732 C 438.877 185.346 429.131 194.049 418.508 200.692 C 399.687 212.462 385.11 209.182 369.216 192.734 C 362.427 185.708 355.666 178.642 348.869 171.627 C 335.525 157.855 320.573 157.437 305.056 164.496 C 282.528 174.741 265.653 194.08 250.39 215.907 C 240.338 230.282 234.744 246.801 236.457 265.623 C 237.416 276.158 240.366 286.55 243.211 296.677 C 247.666 312.531 250.147 328.078 244.266 344.289 C 236.083 366.848 214.941 374.106 199.843 359.552 C 187.825 347.966 184.288 332.381 187.098 314.627 C 189.758 297.827 193.59 281.287 195.907 264.428 C 198.207 247.699 196.16 238.181 181.709 228.613 C 163.099 216.29 145.016 202.794 126.587 190.059 C 111.942 179.939 96.724 172.058 79.539 170.265 C 61.688 168.402 45.618 173.384 31.362 186.225 C 17.935 198.32 8.383 214.32 1.866 233.014 C 1.098 235.218 0.298 237.407 -0.822 239.761 C -1.157 160.295 -1.157 80.671 -1.157 1.054 C 456.895 1.061 914.948 1.061 1373 1.061 C 1373 97.822 1373 194.51 1373 291.768 Z" style=""/>
</svg>