<?xml version="1.0" encoding="utf-8"?>
<svg version="1.1" id="Layer_1" xmlns="http://www.w3.org/2000/svg" x="0px" y="0px" width="100%" viewBox="0 0 1493 430" enable-background="new 0 0 1493 430">
  <path fill="#FD0100" opacity="1.000000" stroke="none" d=" M1494.000000,240.531311 C1491.970093,242.341461 1489.976929,243.742859 1487.904419,245.014755 C1474.689941,253.124268 1461.297974,251.775970 1448.821899,242.170715 C1435.188354,231.674438 1426.968994,217.490387 1421.844238,201.181122 C1417.065552,185.972946 1413.120483,170.395096 1404.346191,156.722748 C1395.510498,142.954575 1383.179321,134.795685 1366.664429,135.184723 C1354.192993,135.478485 1343.105713,140.737045 1333.147339,148.309464 C1321.932983,156.836853 1313.549561,167.913239 1305.024658,178.892807 C1296.954346,189.287018 1287.285645,197.581848 1273.435669,197.783234 C1264.488159,197.913330 1256.227905,194.856216 1248.666138,189.403152 C1241.179077,184.003998 1238.128540,176.035309 1234.223389,168.478714 C1228.087402,156.605759 1213.325928,149.910034 1200.399902,152.857849 C1189.234375,155.404175 1185.790894,166.256454 1187.268799,174.206192 C1190.321655,190.628006 1195.005615,206.738892 1198.476074,223.092804 C1202.180664,240.548965 1199.258301,256.516083 1185.962036,269.528351 C1173.985474,281.249176 1152.580688,278.851379 1142.938721,264.941437 C1133.511108,251.340683 1133.466309,236.596008 1137.365112,221.445099 C1140.066162,210.948624 1144.243042,200.765686 1146.145020,190.153137 C1147.415405,183.064087 1147.208374,175.081253 1145.254150,168.180496 C1141.710083,155.665939 1128.560303,155.499664 1118.376953,160.459045 C1109.663818,164.702362 1105.838867,173.219467 1106.293091,182.171906 C1106.880493,193.743500 1109.163452,205.291763 1111.464722,216.699036 C1114.938232,233.915329 1119.591919,250.903839 1122.740356,268.172150 C1125.380615,282.652679 1126.785156,297.507874 1123.828247,312.099396 C1121.062134,325.749908 1115.571045,338.163361 1102.731567,345.828064 C1091.782959,352.364044 1076.033447,351.565918 1065.890381,342.467499 C1055.675293,333.304535 1048.618164,322.261383 1047.192017,308.640228 C1045.917236,296.463226 1046.778442,284.138031 1050.407593,272.281250 C1055.414429,255.923462 1060.694946,239.649475 1065.840942,223.334137 C1070.598633,208.249878 1073.087891,192.765213 1071.874878,177.006424 C1070.582153,160.213242 1065.637451,144.714264 1050.399780,135.038971 C1040.958984,129.044525 1030.526001,127.219521 1019.191101,128.668091 C1000.226929,131.091644 984.494690,140.695801 968.536438,149.971924 C953.302673,158.826904 938.679565,168.774399 921.639465,174.231384 C908.517212,178.433701 895.330994,180.101944 882.740051,173.818649 C874.748962,169.830841 867.456665,164.233688 860.376221,158.687683 C852.985596,152.898697 846.694336,145.652344 839.096558,140.192230 C820.212646,126.621422 801.377991,128.009262 781.991577,143.493027 C772.206787,151.308060 762.992676,160.024719 752.491699,166.720200 C723.166626,185.418106 693.067566,185.145508 663.206055,167.642319 C650.709595,160.317551 638.725037,152.122925 626.279358,144.707077 C607.930664,133.773865 589.611755,134.946213 571.658386,145.877777 C561.110352,152.300308 550.868530,159.261444 540.065918,165.212372 C535.785278,167.570541 530.342224,167.787308 525.456360,169.084076 C508.170258,173.671906 497.187439,162.572083 485.606964,153.058655 C480.117096,148.548706 475.131836,143.364105 469.362915,139.266586 C456.649902,130.236832 443.025757,129.062454 428.334045,134.786331 C405.859192,143.542496 388.809326,159.028717 373.463806,176.936447 C363.355377,188.732697 357.520569,202.248901 359.249329,217.769272 C360.253326,226.782898 363.332306,235.656387 366.211365,244.349930 C371.171173,259.326416 373.004578,274.014923 363.925323,288.064209 C357.148560,298.550629 346.931854,302.830109 334.937927,300.799225 C324.490540,299.030243 317.155304,292.432800 312.686279,282.522308 C308.407990,273.034698 308.186737,263.371857 310.314636,253.536148 C312.917603,241.504715 316.319336,229.633591 318.584991,217.544968 C321.190002,203.645523 318.871429,195.518997 304.851074,187.833527 C286.207977,177.614059 267.921204,166.739944 249.558304,156.015320 C229.974609,144.577698 209.198669,137.508881 186.267715,140.154114 C172.070663,141.791855 159.657928,147.796860 148.754913,157.520874 C132.671509,171.865097 124.137589,190.635391 117.320717,210.129028 C111.485069,226.816696 107.087769,244.094238 103.331688,261.388306 C101.218620,271.117493 100.800873,281.447449 101.237381,291.436035 C101.729836,302.704895 103.967598,313.904663 105.578110,325.115509 C107.307526,337.154144 109.485291,349.135590 110.921402,361.206970 C112.309395,372.873840 113.544800,384.608582 113.866714,396.340393 C114.296059,411.988007 107.990128,423.861237 92.360939,429.370392 C91.947578,429.516113 91.680077,430.075623 91.672272,430.721069 C84.645744,431.000000 77.291496,431.000000 69.807846,430.754395 C66.970825,428.685333 64.058365,427.101501 61.593197,424.994415 C53.528744,418.101288 51.733318,408.410217 51.100422,398.662140 C49.715412,377.329590 56.612770,357.004333 59.440430,336.175201 C61.538406,320.721039 64.684586,305.347748 65.708763,289.829254 C66.486420,278.045990 65.579247,265.948364 63.768047,254.246582 C61.250160,237.979095 54.067142,223.614166 42.278351,211.692520 C30.447517,199.728333 15.276694,193.092316 1.000000,185.000000 C1.000000,123.680664 1.000000,62.361320 1.000000,1.058625 C498.666656,1.058625 996.333313,1.058625 1494.000000,1.058625 C1494.000000,80.765732 1494.000000,160.414200 1494.000000,240.531311 z"/>
</svg>