<svg xmlns="http://www.w3.org/2000/svg" version="1.1" xmlns:xlink="http://www.w3.org/1999/xlink" xmlns:svgjs="http://svgjs.dev/svgjs" width="2048" height="2048"><svg xmlns="http://www.w3.org/2000/svg" viewBox="0 0 2048 2048">
  <path d="M1118 313h2v3l-14 10-17 12-13 10-12 11-9 10-11 16-12 23-6 15-5 16-3 16-1 21 2 18 5 20 8 26 3 22 7 14 8 10 8 6 12 6 4 1 24 1-6-11-7-15-5-15-4-17-1-9 1-28h2l7 18 9 20 7 11 9 11 10 7 10 5 11 3 15 1 10-2 16-7 21-12 21-10 10-3 32-5 12-1h34l17 1-3-19-8-30-10-28-10-21-13-20-10-16 1-2 16 10 12 9 10 9 8 7 9 11 8 10 9 13 8 14 6 16 6 22 5 29 4 5 13 9 17 14 9 7 9 9 1 2h2l-1-7-8-16-6-11-8-11-11-12-8-6-11-8v-2l9 1 24 7 22 11 13 10 11 11 15 20 9 10 7 4 6 1 11-4 14-9 10-8 14-12 8-7 9-9 11-14 9-14 5-8 1-3v-7l-9-14-13-18-13-16-9-11-12-12-7-8-28-24-15-10-21-11-28-11-36-12 2-3 12-3 7-1h12l26 2 17 3 21 6 26 11 15 8 17 11 20 16 12 11 16 16 9 11 9 12 12 19 5 4 25 7 24 10 17 8 20 12 15 11 10 8 14 12 13 12 9 10 11 12 11 13 11 14 9 11 8 10 10 11 10 13 10 14 12 16 3 1 10-8 16-16 8-7 14-9 14-7 23-8 26-4 9-1h30l2 2-8 5-25 12-11 7-12 9-10 9-7 6-7 8-12 15-12 18-6 14-5 20-1 10v33l4 59v32l-2 32-5 48-3 16-1 10 8-7 12-14 10-15 12-22 12-23 1-2h4l1 2 1 13v13l-3 18-6 23-8 23-10 26-10 19-7 9-9 10-10 10-11 9-3 3h-2v2l-11 9-19 19-11 14-10 15-9 15-11 23-9 27-4 18-1 10v17l3 14 8 20 4 14 6 47 5 22 13 40 6 26 5 29 1 11 1 72 1 5v14l-6 7-2 1-9-1-5-5-1-3v-17l2-13v-24l-1-37-5-13-3-6-7-9-5-13-5 1-1 72-3 6-3 3h-6l-3-6-2-16-2-43-2-18-1-2h-3l-5 16-3 8-4 10-3 11-3 2-4-4-2-3h-3l-4 16-2 14-1 16-1 31-2 14-1 3-3 2-4-1-5-5h-5l-4 5-3 7-1 11 3 18v8l-3 6-7 1-5-3-3-8-3-15-5-48v-59l2-24 3-17 8-30 8-27v-14l-2-6h-6l-5 5-14 27-5 10-4 3-4 13-4 17-3 5h-7l-2-9-1-19-7 4h-4l-3-15-4-4-3 22v9l2 19-1 14-3 10-4 7h-7l-1 1 1 10 8 30 7 20 10 19 1 8-6 10-4 8-2 2-12-1 2 41v21l-5 5h-6l-5-4-2-8-2-43-3-29-3-9-2-1-1 25-3 8-5 2-5-3-5-12-2-12-1-40-4-57-2-19-1-2-1 1v34l1 10v15l-5 5-7 1-6-3-3-9-1-32-3-31-2-60-10-2-2-1-11-1-4-3h-5l-5 7-5-2-2-6-8 1-4 2-1 2v31l1 7v12l-3 4h-10l-3-3-2-8-1-30-6 3-10 9-3 6v39l-1 8-1 1h-6l-2-2-4-16-2-13-2 1-3 12-1 28-7 8-4 5-4 15-4 6h-6l-2-4h-4l-1 3-1 23-2 15-3 6-2 1-4-2-4-17-4-36-1-28-6-3-2-9-2-12h-3l-3 15-2 3h-7l-2-2-3-21-5-51-2-15-2-5-5-1-1 23-3 9-2 2-10 1v31l5 32 1 15-5 10-6-1-3-5-3-14-2-13-5 1-2 3h-5l-2-3h-6l-3 6-3 14-2 21-1 29-3 7h-8l-5-14-1-9-1-24-3 3-1 9-4 2-5 2-11 8-7 10-6 14-1 15 2 39 4 23v12l-5 5-2 1h-7l-5-3-5-6-1-13v-51l-3-12-3-7-2 3-2 21-2 4-3 1-6-2-2-5-3-29v-18l3-10 4-13v-27l-2-14-3-1-3 12-5 3h-6l-3-7-6-32-4-29v-3l-4 4-2 4-5-1-4-5-7-18-1-3h-3v20l1 8v10l-5 3h-6l-4-4-3-8-3-20-1-5-4 1-2 5 1 13 4 30v14l-2 3-4 1-1 3-3 33-5 30-1 2-9 1-3 1-1 2v14l3 23 2 10v8l-4 5h-9l-5-5-3-9-1-5v-7l1-2 1-24-5 3-4 3-11 1-3 2v19l5 36 1 6v8l-3 7-5 3-5-1-8-5-2-6v-36l-4-26-3-9-4-4-5-2 3-5 5-4h2l2-4 10-13 8-14 5-12 3-9v-12l-4-3-4-1-3 14-4 11-2 2-7-1-2-7-1-36 1-24 1-4-7 3-5-1-1-20-17 5-4 1-4 20-2 27-1 2-8-1-3-7-1-40-8 4-5 6-5 22-2 3-5-1-5-7-4 1-7 9-9 12-5 5-2 31-2 7-3 3-5-1-4-9-2-9-1-16-3 1-5 16-3 14-2 2-4-1v-42l1-16-4 5-6 10-5 3-13 8v44l1 14v12l-4 5-4 1-7-3-3-4-2-9v-39h-23l-3 1-4 12-2 2-5-1-4-4-3-14-2-19h-12l-5-6-7 1-2 84-3 3-7 1-7-3-3-6v-14l2-10v-29l-1-14-6 2-4 4-7-1v-2l-7 2-8 7-5-1-6-6-8 1-1 1-2 9-8 3-1 3-1 15v19l4 51v8l-3 5-3 2h-9l-5-5-2-5 1-45h-2l-1 7-7 24-4 22-6 47-3 15-4 10-3 2h-7l-2-1-1-4 1-39v-18l-5-19-2-19-1-29-3-20-1-15-1-3h-2l-2 6-1 17-3 12h-8l-3-6-3-23v-6l-8 5-7 7h-9l-2 6-4 50-2 2-7-1-4-5-3-16-1-12v-21l3-14 12-26 4-11 4-24 1-9-4 1-6 14-6 2-2-1-3-16-9-6h-5v13l1 20v27l-3 14-7 1-3-4-3-14-3-43-2-11h-3l-3 4-8 1-1 16-4 3-5-1-3-9v-2l-4 1-1 3v24l1 25-1 3-2 1h-9l-3-5-3-10-1-7v-22l-4 4-11 21-9 27-2 12-1 14v24l3 20 2 10v8l-3 7-3 5-1 30-1 15-2 9-2 3-5-1-4-9-3-17-2-27-4-11-5-10h-2l-8 22-3 1-3-3-1-9-1-58-4-15-2-13h-3l-5 6-5-1-2-11-1-10 1-52-1-8-11-11-2-1-1 8-2 3h-5l-2-4-1-13-17-4-6-2h-5l-3 25-2 9-5 3h-5l-2-5-1-8-1-35-1-5-14-1v18l-1 32-2 23-3 9-5 5h-3l-3-6-1-5-1-74-12-2-2-2v-3h-6l-3 3-7-2-4-3-13-5-1 28-3 25-3 10-5 1-4-3-2-7-1-48v-12l-13-3-12-3-7-3-2 7-2 17-5 3-4-2-4-20-1-12h-4v51l-2 10-4 1-5-3-4-15-2-19v-26H84l-4 9-6 2-12 1-6 8-5 13-4 19-4 36-3 6-4 1-5-4-4-10-1-6v-41l2-20 5-16 6-8 6-5 20-12 21-11 16-6 16-4 15-2h5l-8-16-4-14-3-16-1-10v-16l2-16 1-6-14 11-10 9-8 7-7 7-13 17-11 17-16 26-6 10-3 1-1-15v-14l3-17 11-33 12-25 12-20 12-17 8-10 12-13 10-10 11-9 17-12 12-8 9-7 2-4-1-6-6-8-9-10-14-19-7-10-11-18-12-24-8-24-5-25-2-23v-32l3-19 9-25 4-2v27l4 27 5 20 8 19 11 18 10 13 11 12 2 1-1-10-2-17v-61l5-43 5-30 7-26 5-17 1-5 1-15v-11l-3-16-9-16-11-14-8-8-14-9-16-6-26-8-2-3 10-3 19-3h13l25 5 14 5 16 9 14 10 11 9 4 2 11-18 18-27 8-10 11-12 15-16 7-8 21-21 8-7 11-10 14-11 15-11 19-12 18-10 19-8 22-8 24-6 19-2 4-4 12-24 12-20 14-19 9-10 7-8 29-29 11-9 15-11 17-11 22-13 30-15 18-7 22-6 12-1 2 2-8 5-27 18-11 8-17 13-13 12-8 7-9 10-9 11-10 14-12 20-8 13-8 18-4 13-1 5v9l4 13 8 16 8 13 11 14 16 16 15 10 15 8 21 8 21 6 16 3h4l-1-5-10-24-6-24-2-14v-21l2-4 4 2 12 23 10 16 9 12 12 12 12 9 11 7 8 4 15 5 14 3 8 1h22l17-5 16-8 8-6 10-11 11-16 9-17 7-21 5-23 3-32v-23l-3-37v-8l4 2 8 16 9 23 7 22 5 20 4 24 1 14v11l-2 20-6 23-14 34-15 31-11 19-4 7 1 2 8-7 12-15 10-13 9-12 3 1-1 13-6 23-5 15-3 10 11-4 14-9 6-7v-7l-2-8v-25l3-41 4-87 3-28 5-23 7-20 9-17 10-14 11-13 21-21 13-10 18-12 15-8 25-11z"></path>
  <path fill="#fd0100" d="M1118 313h2v3l-14 10-17 12-13 10-12 11-9 10-11 16-12 23-6 15-5 16-3 16-1 21 2 18 5 20 8 26 3 22 7 14 8 10 8 6 12 6 4 1 24 1-6-11-7-15-5-15-4-17-1-9 1-28h2l7 18 9 20 7 11 9 11 10 7 10 5 11 3 15 1 10-2 16-7 21-12 21-10 10-3 32-5 12-1h34l17 1-3-19-8-30-10-28-10-21-13-20-10-16 1-2 16 10 12 9 10 9 8 7 9 11 8 10 9 13 8 14 6 16 6 22 5 29 4 5 13 9 17 14 9 7 9 9 1 2h2l-1-7-8-16-6-11-8-11-11-12-8-6-11-8v-2l9 1 24 7 22 11 13 10 11 11 15 20 9 10 7 4 6 1 11-4 14-9 10-8 14-12 8-7 9-9 11-14 9-14 5-8 1-3v-7l-9-14-13-18-13-16-9-11-12-12-7-8-28-24-15-10-21-11-28-11-36-12 2-3 12-3 7-1h12l26 2 17 3 21 6 26 11 15 8 17 11 20 16 12 11 16 16 9 11 9 12 12 19 5 4 25 7 24 10 17 8 20 12 15 11 10 8 14 12 13 12 9 10 11 12 11 13 11 14 9 11 8 10 10 11 10 13 10 14 12 16 3 1 10-8 16-16 8-7 14-9 14-7 23-8 26-4 9-1h30l2 2-8 5-25 12-11 7-12 9-10 9-7 6-7 8-12 15-12 18-6 14-5 20-1 10v33l4 59v32l-2 32-5 48-3 16-1 10 8-7 12-14 10-15 12-22 12-23 1-2h4l1 2 1 13v13l-3 18-6 23-8 23-10 26-10 19-7 9-9 10-10 10-11 9-3 3h-2v2l-11 9-19 19-11 14-10 15-9 15-11 23-9 27-4 18-1 10v17l3 14 8 20 4 14 6 47 5 22 13 40 6 26 5 29 1 11 1 72 1 5v14l-6 7-2 1-9-1-5-5-1-3v-17l2-13v-24l-1-37-5-13-3-6-7-9-5-13-5 1-1 72-3 6-3 3h-6l-3-6-2-16-2-43-2-18-1-2h-3l-5 16-3 8-4 10-3 11-3 2-4-4-2-3h-3l-4 16-2 14-1 16-1 31-2 14-1 3-3 2-4-1-5-5h-5l-4 5-3 7-1 11 3 18v8l-3 6-7 1-5-3-3-8-3-15-5-48v-59l2-24 3-17 8-30 8-27v-14l-2-6h-6l-5 5-14 27-5 10-4 3-4 13-4 17-3 5h-7l-2-9-1-19-7 4h-4l-3-15-4-4-3 22v9l2 19-1 14-3 10-4 7h-7l-1 1 1 10 8 30 7 20 10 19 1 8-6 10-4 8-2 2-12-1 2 41v21l-5 5h-6l-5-4-2-8-2-43-3-29-3-9-2-1-1 25-3 8-5 2-5-3-5-12-2-12-1-40-4-57-2-19-1-2-1 1v34l1 10v15l-5 5-7 1-6-3-3-9-1-32-3-31-2-60-10-2-2-1-11-1-4-3h-5l-5 7-5-2-2-6-8 1-4 2-1 2v31l1 7v12l-3 4h-10l-3-3-2-8-1-30-6 3-10 9-3 6v39l-1 8-1 1h-6l-2-2-4-16-2-13-2 1-3 12-1 28-7 8-4 5-4 15-4 6h-6l-2-4h-4l-1 3-1 23-2 15-3 6-2 1-4-2-4-17-4-36-1-28-6-3-2-9-2-12h-3l-3 15-2 3h-7l-2-2-3-21-5-51-2-15-2-5-5-1-1 23-3 9-2 2-10 1v31l5 32 1 15-5 10-6-1-3-5-3-14-2-13-5 1-2 3h-5l-2-3h-6l-3 6-3 14-2 21-1 29-3 7h-8l-5-14-1-9-1-24-3 3-1 9-4 2-5 2-11 8-7 10-6 14-1 15 2 39 4 23v12l-5 5-2 1h-7l-5-3-5-6-1-13v-51l-3-12-3-7-2 3-2 21-2 4-3 1-6-2-2-5-3-29v-18l3-10 4-13v-27l-2-14-3-1-3 12-5 3h-6l-3-7-6-32-4-29v-3l-4 4-2 4-5-1-4-5-7-18-1-3h-3v20l1 8v10l-5 3h-6l-4-4-3-8-3-20-1-5-4 1-2 5 1 13 4 30v14l-2 3-4 1-1 3-3 33-5 30-1 2-9 1-3 1-1 2v14l3 23 2 10v8l-4 5h-9l-5-5-3-9-1-5v-7l1-2 1-24-5 3-4 3-11 1-3 2v19l5 36 1 6v8l-3 7-5 3-5-1-8-5-2-6v-36l-4-26-3-9-4-4-5-2 3-5 5-4h2l2-4 10-13 8-14 5-12 3-9v-12l-4-3-4-1-3 14-4 11-2 2-7-1-2-7-1-36 1-24 1-4-7 3-5-1-1-20-17 5-4 1-4 20-2 27-1 2-8-1-3-7-1-40-8 4-5 6-5 22-2 3-5-1-5-7-4 1-7 9-9 12-5 5-2 31-2 7-3 3-5-1-4-9-2-9-1-16-3 1-5 16-3 14-2 2-4-1v-42l1-16-4 5-6 10-5 3-13 8v44l1 14v12l-4 5-4 1-7-3-3-4-2-9v-39h-23l-3 1-4 12-2 2-5-1-4-4-3-14-2-19h-12l-5-6-7 1-2 84-3 3-7 1-7-3-3-6v-14l2-10v-29l-1-14-6 2-4 4-7-1v-2l-7 2-8 7-5-1-6-6-8 1-1 1-2 9-8 3-1 3-1 15v19l4 51v8l-3 5-3 2h-9l-5-5-2-5 1-45h-2l-1 7-7 24-4 22-6 47-3 15-4 10-3 2h-7l-2-1-1-4 1-39v-18l-5-19-2-19-1-29-3-20-1-15-1-3h-2l-2 6-1 17-3 12h-8l-3-6-3-23v-6l-8 5-7 7h-9l-2 6-4 50-2 2-7-1-4-5-3-16-1-12v-21l3-14 12-26 4-11 4-24 1-9-4 1-6 14-6 2-2-1-3-16-9-6h-5v13l1 20v27l-3 14-7 1-3-4-3-14-3-43-2-11h-3l-3 4-8 1-1 16-4 3-5-1-3-9v-2l-4 1-1 3v24l1 25-1 3-2 1h-9l-3-5-3-10-1-7v-22l-4 4-11 21-9 27-2 12-1 14v24l3 20 2 10v8l-3 7-3 5-1 30-1 15-2 9-2 3-5-1-4-9-3-17-2-27-4-11-5-10h-2l-8 22-3 1-3-3-1-9-1-58-4-15-2-13h-3l-5 6-5-1-2-11-1-10 1-52-1-8-11-11-2-1-1 8-2 3h-5l-2-4-1-13-17-4-6-2h-5l-3 25-2 9-5 3h-5l-2-5-1-8-1-35-1-5-14-1v18l-1 32-2 23-3 9-5 5h-3l-3-6-1-5-1-74-12-2-2-2v-3h-6l-3 3-7-2-4-3-13-5-1 28-3 25-3 10-5 1-4-3-2-7-1-48v-12l-13-3-12-3-7-3-2 7-2 17-5 3-4-2-4-20-1-12h-4v51l-2 10-4 1-5-3-4-15-2-19v-26H84l-4 9-6 2-12 1-6 8-5 13-4 19-4 36-3 6-4 1-5-4-4-10-1-6v-41l2-20 5-16 6-8 6-5 20-12 21-11 16-6 16-4 15-2h5l-8-16-4-14-3-16-1-10v-16l2-16 1-6-14 11-10 9-8 7-7 7-13 17-11 17-16 26-6 10-3 1-1-15v-14l3-17 11-33 12-25 12-20 12-17 8-10 12-13 10-10 11-9 17-12 12-8 9-7 2-4-1-6-6-8-9-10-14-19-7-10-11-18-12-24-8-24-5-25-2-23v-32l3-19 9-25 4-2v27l4 27 5 20 8 19 11 18 10 13 11 12 2 1-1-10-2-17v-61l5-43 5-30 7-26 5-17 1-5 1-15v-11l-3-16-9-16-11-14-8-8-14-9-16-6-26-8-2-3 10-3 19-3h13l25 5 14 5 16 9 14 10 11 9 4 2 11-18 18-27 8-10 11-12 15-16 7-8 21-21 8-7 11-10 14-11 15-11 19-12 18-10 19-8 22-8 24-6 19-2 4-4 12-24 12-20 14-19 9-10 7-8 29-29 11-9 15-11 17-11 22-13 30-15 18-7 22-6 12-1 2 2-8 5-27 18-11 8-17 13-13 12-8 7-9 10-9 11-10 14-12 20-8 13-8 18-4 13-1 5v9l4 13 8 16 8 13 11 14 16 16 15 10 15 8 21 8 21 6 16 3h4l-1-5-10-24-6-24-2-14v-21l2-4 4 2 12 23 10 16 9 12 12 12 12 9 11 7 8 4 15 5 14 3 8 1h22l17-5 16-8 8-6 10-11 11-16 9-17 7-21 5-23 3-32v-23l-3-37v-8l4 2 8 16 9 23 7 22 5 20 4 24 1 14v11l-2 20-6 23-14 34-15 31-11 19-4 7 1 2 8-7 12-15 10-13 9-12 3 1-1 13-6 23-5 15-3 10 11-4 14-9 6-7v-7l-2-8v-25l3-41 4-87 3-28 5-23 7-20 9-17 10-14 11-13 21-21 13-10 18-12 15-8 25-11zm-518 75-16 12-13 11-13 12-8 7-7 8-9 9-11 15-10 15-8 13-8 16-14 30-8 20-13 32-11 25-8 16-10 18-11 19-8 17-5 15-3 16-2 18v18l2 3 3-1 6-25 9-24 9-16 9-10 7-5 3-1h7l9 7 6 9 9 24 9 17 8 14 8 17 3 11v14l-3 10-6 11-7 9-9 10-8 7-5 4v2h7l12-5 15-10 13-13 10-15 10-16 4-3 8-1 37 7 20 2 20 1 50 1 40 2 21 3 2 2-1 7-10 10-13 9-18 8-21 8v2l2 1 24-1 25-4 21-6 27-11 28-14 19-10 19-9 11-4 5-1-9 16-9 11-10 11-8 7-12 10-18 11-17 8-21 7-20 4-30 4h-34l-32-5-22-4-12-1h-11l-18 2-32 6-14 3h-7l-6-8-11-12-7-4-3 1 1 4 12 16 5 8-11 3-37 13-7 2-2-4-11-10-18-13-7-1 2 5 9 10 10 14 3 6-1 3-11 6-12 9-13 11-1 5 6-1 11-7 16-8 8-3h3v24l-4 13-6 10-9 10-6 5h-4l-3-7-3-27-4 2-7 10-13 25-8 11-10 10-10 7-15 8-18 7-23 6-7 1h-22l-11-4-11-7-8-10-7-15-8-25-5-21-3-18-2-27v-29l2-21 6-30 9-29 11-29 17-37 12-23 12-18 8-11 11-14 11-13 11-14 13-15 18-20 13-13 11-9 13-10 13-9 21-13 16-10 2-4h-7l-26 9-15 6-19 10-19 12-18 13-13 10-11 9-14 13-8 7-20 20-9 11-10 12-13 17-11 16-18 27-9 15-4-5-6-11-8-10-10-9-11-6h-4l2 5 7 10 10 19 5 17 1 5v20l-5 19-8 25-6 29-3 21-3 36-1 20v30l4 36 4 25 1 9-13-5-12-7-12-11-11-14-10-17-3-1-1 6 5 17 8 20 8 16 12 19 11 13 7 8 8 8 8 10 4 7v11l-6 8-26 16-16 11-13 10-14 12-9 9-11 14-9 14-12 23-3 8v5l4-1 12-14 8-9 8-7 11-10 13-9 12-6 12-2-3 14-6 25-2 15v25l3 16 5 12 6 8 5 6 8 7 11 11 1 2-23-1h-26l-17 3-15 4-8 4-1 3 49 2 18 3 16 5 24 10 16 7 23 6 17 3 35 5 21 7 19 9 19 12 13 11 8 9 5 11 3 12 5 47 5 27 5 21 9 27 6 14 3 1v-10l-2-24v-34l2-26 3-12 5-13 10-16 11-14 10-10 15-10 16-7 15-4h39l15 4 14 7 3 7v24l-3 15-3 11v6l4 1 10-18 9-12 6-5 5-1 8 16 6 15 7 24 4 19 1 7 1 45h3l3-7 3-11 5-38 1-30-1-14-6-23-7-20 2-4 12-9 12-10 11-9 13-10 8-8 8-7 9-10 13-18 11-17 17-28 6-12 8-27 5-26 7-8 7-7 14-11 8-5 3-1h9l9 6 7 7 7 8 5 6 8 7 10 8 13 8 14 5 25 6 21 7 14 5 18 5h10v-3l-18-10-12-7-8-8-2-4v-5l2-2h15l18 6 13 8 6 7 3 6 1 8-3 8-7 6-19 7-47 16-28 7-21 3-27 2-6 2 3 2 19 5 12 2 15 1h27l-3 5-11 8-16 10-17 11-12 9-10 8-11 8-5 2-7-1-7-6-10-15-8-17-6-19-5-30-1-9v-20l4-19 7-17 6-11 3-5-1-3-7 3-9 9-8 10-9 14-8 17-4 16-2 18-1 63-3 19-5 16-5 12-6 8-7 7-15 10-15 9 1 2 11-1 13-4 22-9 24-10 5 1 13 9 11 11 10 8 9 3h8l9-6 12-14 9-9 18-13 9-5 6-2 14-2-8 30v8l3-1 12-17 11-13 7-8 11-11v-2l4-2 9-7 14-5 46-11 18-6 20-9 8-6-6 11-5 8-5 13-5 19-2 9v7l3 3 5-8 6-10 4-4 4 1 3 5 2 7 5 34v20l-5 17-9 19-10 16 1 3 5-2 10-9 11-13 11-19 4-14 1-8v-43l2-27 2-17 3-10 2-2 4-1h7l10 4 8 6h2l-1-10-5-17-1-6v-26l4-15 5-12 7-9 8-7 9-4 12-2h15l5 3 3 5 2 8v22l-3 15-8 29-3 19v8l4 24 2 7 3 2 3-21 2-8 1-1h8l1 9 1 33 3 10 7 17 6 21 1 8v31l-3 12-1 3v8l4-1 6-12 5-12 5-5 11-7 13-12 9-10 14-20 14-23 12-24 12-17 16-17 9-11 9-13 8-13 9-17 11-30 5-19 2-29v-17l-1-11-2-2-3 6-12 36-9 19-4 6-4 1-2-4v-27l4-43 4-27 8-32 12-36 7-19 4-6 7-6 16-9 15-7 5-1h8l4 4v7l-5 6-11 9-13 11-11 11-12 20-11 25-9 26-3 10 1 5 4-2 10-11 5-3h6l3 1 2 5 3 10 1 17-4 36-5 25-7 24-6 23-2 24v27l3 9h2l4-20 8-24 8-16 5-6 5-2 9 1 4 5 4 9v23l-5 27-6 22-10 34-4 20-3 24v16l2 5 3-3 6-22 9-24 12-25 12-22 7-9 8-8 17-10 15-6 14-3h24l15 5 28 12 18 6 7 1-4 31-1 11v29l3 33 5 30 4 15 9 21 10 18 4 8h3v-9l-9-33-5-35-1-10v-23l3-23 6-25 11-40 3-12 2-16v-20l-2-15v-23l3-14 7-21 8-19 8-15 13-21 7-15 10-31 4-15 4-9 7-1 4 5 4 9 5 31v21l-2 33-2 32-3 19-6 23-7 21-13 25-7 14-6 15-5 18v10h4l8-16 8-14 8-10 10-8 9-3h9l5 3 4 5 4 9 1 5v16l-6 27-10 38-5 25-2 19v16l2 17 2 12 2 1 2-10 4-28 6-26 8-21 9-20 15-35 6-23 2-17 1-29 2-10 5 1 3 5 4 11 4 15 6 15 8 16 8 13 7 10 4-1-3-10-9-27-5-28-4-34-5-17-7-16-2-10v-32l5-24 7-25 6-15 13-25 10-17 12-17 30-30 8-7 14-12 10-9 9-10 12-17 8-16 6-15 3-7v-3l-4 2-13 16-7 8-9 8-15 10-15 7-4 1 7-21 8-32 5-26 5-41 1-14v-57l-3-41-1-34v-14l3-18 5-16 10-19 8-11 7-9 9-10 3-5-4-1-12 5-11 7-15 14-9 11-7 7-4 2h-8l-7-6-13-20-12-18-14-19-24-28-22-26-24-26-8-7-10-9-14-11-20-14-15-10-11-5h-5l2 4 10 8 11 10 8 7 22 22 1 2h2l2 4 9 10 7 9 11 15 14 19 11 17 9 16 12 23 8 16 11 24 8 22 8 27 6 26 4 25 2 20v33l-4 30-5 23-13 47-8 20-13 23-15 20 1 7 5 15v10l-6 25-9 24-7 12-5 6-6 4h-5l-4-8-5-22-2-15v-17l2-15 5-23 7-22 8-23 8-16 15-27 11-19 6-14 6-21 5-29v-21l-2-4-3 1-10 28-12 25-11 17-7 8-6 4-3 1h-8l-8-5-4-8-6-20-8-28-9-25-11-22-11-17-10-14-10-13-12-14-15-15-19-14-6-4 1-7 5-14 11-21 6-12 5-17 3-24v-38l-7-30-6-21-14-30-12-22-14-22-14-17-11-12-13-13-11-9-10-8-25-15-16-8-5-2h-6l1 4 12 7 14 10 13 12 7 8 12 14 8 10 14 17 11 16 13 21 10 21 5 16 3 18 1 8v35l-3 18-4 13-8 18-9 15-10 14-12 16-12 13-7 8-16 17-9 9-6 1-11-11-9-13-13-25-5-14-1-4v-7l3-10 7-9 10-8 18-11 12-8 9-7 10-9 7-7 10-16 11-21 6-15v-6l-4 2-10 15-10 13-9 9-8 7-15 11-15 9-11 5-13 4h-12l-9-6-8-10-13-21-9-10-5-1-1 2 7 15 3 13v24l-4 13-6 11-9 10-12 9-21 11-14 5-18 3h-18l-24-3 7-21 16-28 9-19 7-20 4-15 8 1 8 2h8l-2-4-17-9-3-1-2-7-5-36-8-26-8-18-4-6h-2l1 10 4 16 5 31 1 9v11l-2 7-25-3-20-1h-35l-21 3-17 4-19 9-23 14-9 4-11 2h-20l-14-3-14-7-7-4h-2l1 5 10 14 2 3h2l1 5-16 5-17 3h-15l-16-5-16-8h-2l1 6 7 14 7 9 18 18 5 8-1 10-6 16-7 12-7 9-8 9-4 2h-6l-1-2v-14l1-17v-21l-1-19-2-10-7-19-5-13-2-8-2-16-1-24-2-12-10-26-5-25-1-11v-21l4-25 8-23 7-14v-5l-4 2-8 9-12 18-8 18-5 17-4 26-3 28-3 56-4 43v26l2 18 2 10v6l-9 10-11 9-19 12-17 8-31 12-16 4 11-7 10-9 11-14 8-12v-3l-4 1-19 14-14 8-18 7-34 9-24 9-19 5-18 3h-14l-9-1 3-6 9-10 13-13 14-11 13-8 12-6 1-3h-12l-22 5-20 7-16 8-20 14-15 11-16 8-20 7-12 2-14-1-16-5-14-6-11-7-9-7-10-9-11-11 1-4 10-6 14-6 15-4 13-2h51l15 1h30l59-7h32l10 3 8 5 3 6v9l-5 10-9 10-2 5 8-1 21-11 12-8 13-10 14-14 10-15 9-15 14-27 8-17 9-24 5-19 2-11 1-20-1-13-3-6-3 1-6 25-5 19-7 16-10 16-9 11-6 7-11 9-10 7-15 7-15 4-6 1h-22l-23-4-16-5-16-7-14-9-16-16-3-1 1 7 10 18 5 10v6l-5 1h-15l-18-2-21-5-25-9-28-13-11-8-10-9-8-8-7-8-12-14-4-1 1 7 8 16 11 21 2 8-10-3-11-7-8-8-7-11-5-15-5-25v-17l3-22 5-16 8-20 13-24 15-24 8-10 5-6v-3z"></path>
  <path fill="#fd0100" d="M401 1046h24l12 4 7 6 5 10 3 12 1 10 1 30 5 26 6 18 6 12 9 12 12 13 7 7 14 11 11 8 16 9 16 7 4 2-12 34-5 23-1 7v12l2 16 2 7-2 1-27-9-23-5-9-1-47-2-29-3-23-5-21-7-15-8-13-12-7-8-11-14-7-15-2-1-1 6-1 30-5 1-13-5-18-10-13-11-8-8-7-10-7-14-4-14-1-7v-19l4-20 7-16 8-14 9-12 9-10 7-8 11-9 13-10 16-11 15-9 29-14 25-9zM1587 743h5l6 7 10 29 8 16 10 16 5 5v-7l-5-20-3-24-1-12v-10l4 1 11 11 9 11 13 18 11 17 12 21 8 19 9 27 6 26 4 27 2 27v11l-2 17-5 16-6 11-12 14-8 8-9 11-10 14-8 14-9 19-7 20-7 30-6 30-5 18-8 17-8 10-8 7-7 3-6-1-2-2v-19l4-32 2-4 5 1 2 9 2 20 2-2 4-19 1-8v-25l-5-20-9-30-3-17v-16l3-15 7-20 18-30 12-25 4-1 14 2h9v-2l-25-10-19-10-14-10-10-9-7-10-7-15-6-19-5-23-3-29v-16l4-18 8-22 9-17 9-10zM719 911l7 1 19 5 13 2 36 1v55l-2 22-4 19-7 20-7 13-12 18-15 22-12 17-7 9-9 10-6 7-8 7-18 18-9 13v3l6-1 10-6 9-1 3 4 2 8v14l-4 23-5 23-12 36-8 20-8 14-9 11-10 9-10 7-12 5h-11l-4-5-5-13-3-12v-30l4-21 5-19 7-19 7-13 6-7 7 3 17 11 15 8h3l-2-5-10-11-13-18-13-21-7-15-3-12v-19l3-24 7-23 10-19 9-13 15-16 12-10 18-13 7-4 4 1 2 16 1 34 2 4h2l6-25 3-23 1-14 2-2 19-4v-1l-19-3-1-1-2-22-4-22-6-20-2-3z"></path>
  <path fill="#fd0100" d="m969 776 2 2-1 37-5 29-7 25-8 14-11 15-10 14-7 8-16 14-1 3 13-3 20-12 7-4h3l-1 12-8 41-1 7v13l1 3 2 1 1-6 8-16 8-14 4-4 3-1h8l2 2v12l-4 15-8 16-8 12-13 16-12 16-7 8-5-2-10-14-6-9v-2h-3l2 17 1 5v12l-5 10-9 10-11 7-11 5-10 3h-8l-3-4 1-6 7-18 3-20 1-17v-41l-3-22-3-14h-3l-3 40-4 24-4 15-5 14-9 15-10 13-12 15-9 13-8 15-6 20-6 30-6 18-10 22h-2l-2-22-2-12v-19l4-14 9-17 12-19 9-16 11-23 6-17 6-20 4-21 2-27v-22l-3-24-6-25-4-11 1-3 33-9 18-6 25-12 26-13 23-11 9-5 2-3-15 1h-33l-11-1v-4l19-19 25-6 13-5 12-7 14-11zM362 550l2 1-13 10-9 7-4 2v2l-11 7-1 2h-2v3l-8 5-6 9-2-1-1 5-6 10-2 3h-2l-2 4-4 5h-3l-1 2-5 1v2h-2l-2 4-2 3h-2l-2 5-4 6-4 3-5 5-6 8-4-1v2l-2 1-4 10-3 3-4 7-4 9-2 3h-2l-2 4-7 9-2 6-1 2-4-1-7-9-5-5h-2l-3 1-4-4-1 3 4 2 8 8 5 8-1 2-9-12-10-9-11-6-4-1 6 9 8 13 7 15 5 19v20l-5 19-8 25-6 29-3 21-3 36-1 20v30l4 36 4 25v9l-6-1-16-8-10-8-11-12-7-10-9-15-2-1 1 11 9 25 6 14 8 14 10 15 14 17 11 11 8 10 4 7v11l-6 8-14 9-19 12-17 12-14 12-8 7-12 13-11 16-9 16-8 17-2 8 5-3 9-11 10-11 8-7 11-10 13-9 12-6 4-1h8v7l-8 32-2 15v25l3 16 5 12 6 8 4 5 8 7 12 12v2h-49l-17 3-15 4-8 4-1 2h26v1l-26 1v1l36 2 4 1 1 8h-6l-2-1 2 4-1 1 7 1 2 2v19h-1l-2-19h-4v51l-2 10-4 1-5-3-4-15-2-19v-26H84l-4 9-6 2-12 1-6 8-5 13-4 19-4 36-3 6-4 1-5-4-4-10-1-6v-41l2-20 5-16 6-8 6-5 20-12 21-11 16-6 16-4 15-2h5l-8-16-4-14-3-16-1-10v-16l2-16 1-6-14 11-10 9-8 7-7 7-13 17-11 17-16 26-6 10-3 1-1-15v-14l3-17 11-33 12-25 12-20 12-17 8-10 12-13 10-10 11-9 17-12 12-8 9-7 2-4-1-6-6-8-9-10-14-19-7-10-11-18-12-24-8-24-5-25-2-23v-32l3-19 9-25 4-2v27l4 27 5 20 8 19 11 18 10 13 11 12 2 1-1-10-2-17v-61l5-43 5-30 7-26 5-17 1-5 1-15v-11l-3-16-9-16-11-14-8-8-14-9-16-6-26-8-2-3 10-3 19-3h13l25 5 14 5 16 9 14 10 11 9 4 2 11-18 18-27 8-10 11-12 15-16 7-8 21-21 8-7 11-10 14-11 15-11zM1326 578h13l-1 6-7 18-8 15-10 13-15 16-7 8-10 9-10 11-10 15-14 26-11 23-11 20-9 14-11 15-12 12-11 9-15 11-15 9-14 6h-5l-7-8-8-7-11-7-11-9-10-13-9-16-2-7v-13l3-10 6-8 5-5 9-7 9-6 10-9 9-11 10-15 13-16 6-5 2-1h13v9l-1 8v15l2 1 3-10 10-19 10-14 13-16 18-18 20-13 24-13 19-7 21-4zM1437 738h8l6 4 9 9 11 14 12 17 8 14 4 12 1 5v13l-4 14-11 23-6 11-13 19-12 14-22 22 7-1 10-5 13-10 13-11 7-8 9-10 6-5 4 1 1 27 4 26 6 28 8 27 8 23v2h-64l-19 3-21 7-21 11-12 9-7 6h-2l1-13 4-34 1-11v-27l-2-15-4-19v-9l3-14v-14l-3-19v-10l2-18 5-13 5-6 7 1 10 6 7 8 4 6h4l-2-10-5-21-1-14 1-15 4-19 6-18 6-8z"></path>
  <path fill="#fd0100" d="M1118 313h2v3l-14 10-17 12-13 10-12 11-9 10-11 16-12 23-6 15-5 16-3 16-1 21 2 18 5 20 8 26 3 22 7 14 8 10 8 6 12 6 4 1 24 1-6-11-7-15-5-15-4-17-1-9 1-28h2l7 18 9 20 7 11 9 11 10 7 10 5 11 3 15 1 10-2 16-7 21-12 21-10 10-3 32-5 12-1h34l17 1-3-19-8-30-10-28-10-21-13-20-10-16 1-2 16 10 12 9 10 9 8 7 7 8-1 2-2 1 4 6 4 10 1 7 8 15-1 3-7-13-2-1 6 26 5 31 1 9v11l-2 7-3 1-23-3-20-1h-35l-21 3-17 4-19 9-23 14-9 4-11 2h-20l-14-3-14-7-9-5 4 8 9 12v2h2l2 5-6 3-21 5-7 1h-15l-16-5-18-9 7 17 8 11 19 19 5 8-1 10-6 16-7 12-7 9-9 10-4 2h-6l-2-3v-14l1-17v-21l-1-19-2-10-7-19-5-13-2-8-2-16-1-24-2-12-10-26-5-25-1-11v-21l4-25 8-23 7-14 1-5-8 7-12 17-8 16-6 16-4 19-5 43-3 56-4 43v26l2 18 2 10v6l-9 10-12 10-19 12-17 8-31 12-14 4-3-1 16-11 10-11 10-14 4-6 1-3-5 3-2-1 3-3h2l2-6 2-4 3-2v-5l-7 3-12 12-4 5-6 3-4-1 4-7 4-4v-3l3-3 3-1 6-10 1 2-6 11 1 2 8-7 12-15 10-13 9-12 3 1-1 13-6 23-5 15-3 10 11-4 14-9 6-7v-7l-2-8v-25l3-41 4-87 3-28 5-23 7-20 9-17 10-14 11-13 21-21 13-10 18-12 15-8 25-11zM576 920h5l12 16 9 19 6 21 3 21v12l-2 14-7 16-10 18-6 18-5 25v32l2 24v21l-3 17-4 12-12 28-2 1-16-9-16-13-12-15-10-16-7-16-4-13-2-15v-11l3-31 4-12 8-15 16-27 18-27 11-21 4-14 1-7v-16l-2-21-1-9 9-4zM1290 906l4 1 2 16v31l-3 18-6 20-5 12-7 12-10 13-9 10-7 8-14 14-8 7-8 8-2 4 5-1 6-2h10l1 4-3 6-7 8-7 4-7-1-8-6-6-5v-2l-4-2-26-26-2 1 1 5 12 21 7 15 5 17 2 17v34l-4 16-8 11-8 6-6 3-5-1 2-6 12-12 1-2-16 3-16 6-13 9-10 7h-4l1-8 6-15 11-21 8-12 6-7 10-8 15-15 7-10-8 4-14 8-12 5-7 2-12 1-8-2-6-8-3-14-1-29-4-24-4-11 8-3 30-10 19-9 17-10 12-9 16-16 7-8 11-12 5-4h6l6 4 3 7-1 13-4 12-10 18-7 9-1 5 5-2 10-8 10-10 9-16 6-14 3-15 1-8 2-32 1-9 3-3 11-4zM1509 1086h14l11 3 7 6 5 10 3 10 1 7v54l-4 23-4 16-5 13-8 16-12 19-10 14-9 11-9 10-7 7-6 4h-5l-6-9-5-18-1-6v-40l4-26 5-16 5-12 7-11 12-15 1-3-14 5-14 8-13 10-5 6h-2l1-14 4-18 4-12 8-16 8-11 11-10 13-9 8-4zM1255 1129l4 1 9 13 8 16 6 15 3 18 2 42-1 21-4 30-11 46-4 21-5 37-5 25-6 18-8 16-7 12-9 11-7 7h-2l1-19v-28l-5-31-1-42-2-22v-18l3-6 5-3 5 1 7 8 5 19 2 7 2-2 2-17v-22l-3-14-11-40-2-13v-12l3-13 12-26 2-7 4-24 6-20z"></path>
  <path fill="#fd0100" d="m1221 804 7 1 3 4 3 19 1 18v35l-2 15-4 16-5 13-10 17-12 19-13 16-9 10-11 11-10 8-24 16-17 8-12 5h-3l1-5 6-11 7-15 11-30 8-16 8-12 19-19 10-8 10-9 5-5 1-4-6-2-17-11-14-11-8-9-4-13-2-12 9-4 18-6 20-9 22-13 8-5zM951 1116l17 1 13 4 11 8 7 8 8 13 16 37 8 18 11 21 2 1-2-14-2-9v-10l3-11 10-16 8-11 7-8 5-2 1 1v14l-3 22-5 23-12 36-12 29-9 14-9 10-12 11-9 5-2-2 7-8 8-13 8-24 1-6v-15l-4-15-9-16-12-13-17-11-16-7-15-4-7-1h-27l-18 2-20 3h-12l-8-4-9-7-7-7-5-10v-7l4-6 7-6 12-5 11-2h14l1 4-7 22-1 5h4l2-5 8-10 10-11 11-7 12-5 13-3zM1327 890l9 2 6 5 5 10 2 12v10l-4 29-2 8-1 9v11l2 12 5 17v3l2-1 1-3v-30l4-17 9-22 5-9 2-1 1 2 1 17-2 21-4 22-7 21-9 20-8 14-14 21-10 13-9 10-12 10-11 6h-2v3h27l1 1v8l-4 14-7 10-3 3-5-1-10-7-11-11-7-8-6-5 1-5 8-15 8-12 8-14 8-22 9-32 5-23 2-16v-33l-4-23-5-18-1-5 14-8 5-2zM1315 700l10 2 34 7 16 4 5 6 2 4v17l-4 18-6 20-8 19-12 23-14 19-9 11-10 12-5-4-7-8-10-12-8-16-4-10-3-17v-67l2-2h8l8 7 6 7 5 7 3 1v-47zM1024 850l6 1 11 7 11 11 8 13 6 14 6 19 2 1 2-16v-31l3 1 7 11 9 14 3 11 1 8v19l-6 37-6 26-6 19-5 12-5 9-3-1-5-12-10-16-9-11-16-16v-7l2-17-1-19-4-23-4-34v-25zM1413 355h12l26 2 17 3 21 6 26 11 15 8 17 11 20 16 12 11 16 16 9 11 9 12 12 19 5 4 14 4v1l-9-1-9-2-5-1-3-5-7-7-5-2 2 6-4-4-10-13-12-14-16-16-11-9-10-8-25-15-16-8-5-2-6-1 1 3 12 7 14 10 14 13 7 8 12 14 8 10 14 17 11 16 4 6-3 6-6-5v-2h-3l-2-2-2 1 4 7-1 2-14-19-10-13-9-11-12-13-13-14-11-9-10-9-9-7-14-9-19-10-28-11-36-12 2-3 12-3zM623 909h8l16 4 19 10 12 9 10 10 9 13 8 14 5 12-1 3-23 8-19 9-13 8-8 4-4-2-4-6-7-29-7-18-9-16-10-13-12-12v-2l23-5zM1022 987l4 1 9 13 8 16 6 21v18l-5 5-17 9-20 8-1 1h11l21-5 9-2-1 8-5 9-6 6-3 1h-7l-19-9-19-10-9-5 1-17 5-18 8-16 7-10 7-8 8-7zM1531 920l4 2 4 5 17 11 15 8 15 6 23 7 8 2-2 5-9 12-9 10-7 7-16 11-18 8-10 2h-10l-3-2-3-25-2-25v-29l2-13zM963 468h1l-1 18v24l3 14-2 22v35l-1 13-2 14v32l2 4 2 2v3h-2l3 3 1 6 3 1-3-14-1-37v-6l2-6 3-32 1-31-2 1-1-7 1-5 2 1 2-13h1v16l-2 39-4 43v26l2 18 2 10v6l-9 10-12 10-19 12-17 8-31 12-14 4-3-1 16-11 10-11 10-14 4-6 1-3-5 3-2-1 3-3h2l2-6 2-4 3-2v-5l-7 3-12 12-4 5-6 3-4-1 4-7 4-4v-3l3-3 3-1 6-10 1 2-6 11 1 2 8-7 12-15 10-13 9-12 3 1-1 13-6 23-5 15-3 10 11-4 14-9 6-7v-7l-2-8v-25l3-41 4-87zM522 895h6l3 8 2 10v19l-3 11-5 12-11 14-10 6-4 1h-7l-5-3-5-8-3-16-1-17-6-28 13-3zM534 623l10 1 24 8 32 13 10 4v3l-26 12-15 9-8 7-2 3-4-1-12-24-7-20zM1050 1294l3 2 2 19v8l-2 6-10 5-28 7-19 3h-16l-7-2 2-5 9-11 6-4 22-7 14-6 18-13zM972 680h1l-1 30-4 15-7 18-9 19-9 13-15 15-10 6-10 5h-2l1-4 8-11 14-23 10-21 7-16 8-17 10-16z"></path>
  <path fill="#fd0100" d="m1511 403 5 2 10 9 8 7 7 8 12 14 8 10 14 17 11 16 4 6-3 6-6-5v-2h-3l-2-2-2 1 4 7-1 2-14-19-10-13-9-11-12-13-13-14-11-9-10-9-6-5h3l10 7 7 2 1-1h9l-4-5-7-5zM963 468h1l-1 18v24l3 14-2 22v35l-1 13-2 14v32l2 4 2 2v3h-2l3 3 1 6 3 1-3-14-1-37v-6l2-6 3-32 1-31-2 1-1-7 1-5 2 1 2-13h1v16l-2 39-4 43v26l2 18 2 10v6l-9 10-12 10-2-1 10-8 1-2h2l2-4v-3l-7-1v-3l4-1v-5l-3 1-2-1-1 9-1 3-8 3-2-1 9-8 1-2v-7l-2-8v-25l3-41 4-87zM1532 405h8l4 1 2-1 4 3v2l4 1 10-2 16 15 15 15 9 11 9 12 12 19 5 4 14 4v1l-9-1-9-2-5-1-3-5-7-7-5-2 2 6-4-4-10-13-12-14-16-16-11-9-10-8-13-8zM1278 839l5 3 15 11 11 8 5 4-2 5-21 21-10 8-6 4-3-1 2-28zM362 550l2 1-13 10-9 7-4 2v2l-11 7-1 2h-2v3l-8 5-6 9-2-1-1 5-6 10-2 3h-2l-2 4-4 5h-3l-1 2-5 1v2h-2l-2 4-2 3h-2l-2 5-4 6-4 3-5 5-6 8-4-1v2l-2 1-4 10-3 3-4 7-4 9-2 3h-2l-2 4-7 9-2 6-1 2-4-1-7-9-5-5-3-2-2-6 1-3-4-4 5 2 16 13 4 2 11-18 18-27 8-10 11-12 15-16 7-8 21-21 8-7 11-10 14-11 15-11zM1573 1292l4 2 8 9 4 8 3 14 1 18-2 14-2 1-10-8-6-7-5-11-1-4v-18l3-15zM1093 1043l3 1v30l-4 21-5 15-5 10h-2l-2-9-2-10-2-41 9-11z"></path>
  <path fill="#fd0100" d="M957 660h5v5l-2 2v1l7 2-4 7h-2l-1 3-9 7-5 5-15 9-15 7-26 10-8 1v-2h2v-2l12-7 13-5 5-2v-2l10-8 2-5 5-2v-2l11-6 10-4h3zM910 401l4 2 8 16 9 23 7 22 5 20 4 24 1 14v11l-2 20-2 9h-1l1-10 1-8v-35l-3-18v-6h-2l1 7-4 1v2l-2-1v-9l-6-16v-8h1l1 7 1-1-1-5h2l1 4 2-1-3-10-5-3v-5h-2l-2-4-1-7-4-7-1-4-3-1-1 6 3 30h2l-1-11 2 3 1 9-4 9h-1l-3 22h-1l1-23v-23l-3-37zM1610 1678h7l6 3 6 7 3 13-1 11-5 8-2 1h-6l-5-3-2-5-1-16-2-11v-6zM450 1497l8 1 6 7 3 10v14l-2 10-3 6-8 1-3-2-2-7v-11l1-3zM248 1478l4 1 6 12 3 13v11l-4 10-4 5-5 1-4-3v-39l2-9zM1799 1213l3 1-1 8-2 10-1 10v17l3 14 8 20 4 14 6 47v6l-2-4-3-21-2-18-3-15-9-5-1-3-2-1v-4l-2 1 1 2-2 1 2 8-1 4-6-16-5-12-2-10v-32l2-11h1v8l-1 7v19l2 17 4 1 1 6 4 1-2-12-1-5 2-5h1v-8l-1-1v-6l1-11-1-3 2-1 1-9h2zM1022 1631l5 2 8 9 4 10 1 5v16l-3 5-1 1h-8l-3-9-2-11-4-11v-13zM936 622l3 1-1 13-2 8h-1l1-9 1-10-4 5-1 2 2 1-1 4-3 7h-2l-2 10h-2v6l-3 7-3 3v3l-4 3-1 5-5 2 1-5-5 3-2-1 3-3h2l2-6 2-4 3-2v-5l-7 3-12 12-4 5-6 3-4-1 4-7 4-4v-3l3-3 3-1 6-10 1 2-6 11 1 2 8-7 12-15 10-13zM579 1531l7 3 3 3 1 3v24l-3 6-4 3h-8l-3-3v-24l2-11 2-3zM1056 592l6 2 8 4 4 1 24 1 1-3 4 1h6l1 1v6l-2 2-10 2-16 2-1 3h-3l4 1h13v1l-7 1h-15l-11-3 2-2 2 1v-3h-2l-7-8-1-4zM161 855h1l-1 16-3 32v16l2 5 1 18-1 13-1 3v7l2 5v12l5-1 3 5v8l1 5v7l-3 1-5-3v-2l-4-1v-2h-2l-1-6 4-1v-3l-4-2-7-3-3-3v-3l-4-2-4-4v-4l4-1 12 14 6 5-1-10-2-17v-61zM1106 1429l7 1 6 4 5 8 1 3v13l-4 6-4 4h-6l-5-4zM114 1414l4 1 6 9 4 9v10l-4 6-3 3h-8l-2-3-2-16v-11l3-6zM1935 981l4 1h3l-1 6-3 3h-2l-1 7-2 16-1 2h-2l-1 6-5 4-3 5-4 2-7 11-9 10-5 5-11 9h-2l-1 3-9 7-15 14-21 21-10 14-2 1 2-5 9-12 30-30 8-7 14-12 10-9 8-9 12-17 8-16 10-25-5 4-8 10v-3l4-5 3-5 3-2zM955 1393l4 2 1 9h2v2l6 1 1-5v-1l1-2h3l1-3 1 3-3 15-2 27-1 2-8-1-3-7-1-40-7 2 2-3zM964 1043l5 1 3 12 1 13-10-1-20-6v-4l13-11zM1833 1588l6 2 6 5 2 5 1 14-3 9-4 5-5 1-2-2-2-28v-10zM1705 1631h7l4 5 2 6v10l-3 8-4 3-6-1-4-5-2-11 1-8 4-6zM889 1497l5 1 6 5 4 8 1 7-3 6-5 4-6-1-5-5-2-5v-10l3-8zM612 1666h6l5 6 1 2v14l-3 9-2 2-7-1-4-6-1-3v-17l3-5zM542 1409l9 2 6 3 2 4 2-1v6l-2 2-1-5-1 16-2 11-6 12h-3l-3 6-1-3 4-11 4-24 1-9-4 1-6 14h-3l3-6-1-6h2l-2-1-1-9zM556 893l25 1v3l-13 8-10 7-4 4-3-1-7-16-2-5zM1580 1373l7 1-1 13-3 29v29l3 33 5 30 4 15 2 5-1 3-4-1-1 4-3-3-4-13-2-12 1-9 3-1-3-20-1-16-1-5v-45l4-32 1-3-6-1zM1475 1448l5 2 5 5 4 7 1 6v8l-3 6-2 2h-6l-2-3-3-14-2-9v-8zM1601 1137h1v27l-5 30 4-3 2 1-1 4-6 4-2 5h-2v2l-3 1-3-3 1-12 2-13v-7l-2-11-2-1-3 24-1 4-1 24 2 4-4-2v-19l4-32 2-4 5 1 2 9 2 20 2-2 4-19 1-8zM282 1442l6 1 5 6 1 9-3 7-3 3-6 1-5-4-2-4v-10l3-6zM498 1418h1l3 15v15l3-3h2l3 3 1 20-2 7-4-1 1 8 2 3 4-1 2-7 1-8v-44h1l1 20v27l-3 14-7 1-3-4-3-14-3-43zM788 896l4 1 1 7v10l-13-2-22-7v-2l19-5z"></path>
  <path fill="#fd0100" d="m924 676 1 3-1 5 7-1-5 6-10 10h-2v2l-12 6-9 4-7 4h-2v2h-2v2l6-1-3 2-14 4-3-1 16-11 10-11 4-4-1 4 10-4 10-6h2v-2l-2-1h4l2-10zM1231 1061l2 1-14 14-2 4 5-1 6-2h10l1 4-3 6-7 8-2-1 6-7 1-2h-4v2h-2v3l-6 3-7-1-2-2-5-2-1-4 8-7z"></path>
  <path fill="#E71011" d="m33 1474 6 2 4 6 1 3v13l-2 3h-7l-5-2-2-7v-14l1-3z"></path>
  <path fill="#fd0100" d="m1540 571 2 1-8 7-5 5-9 7-1 2-11 6-6 4-8 4-1 5-6 2h-12v-3h-3l-5-6 4-1 8-1-3-2v-2l-4-2-10-14 1-2 10 13 9 8 9 2 11-4 14-9 10-8zM407 1659l6 1 5 5 2 4v9l-4 4-2 1-9-1-3-5v-10zM1383 1566l5 2 4 6 1 3v9l-3 9h-7l-3-3-2-7v-11l3-7zM138 1294h2v2l10-1 5 5v4l-9-1-6-2-1-1h-13l-4 1 12-1-1 4-6 3-7 2-12 1-4-3 3-1v-2l-10 3-4-1 16-5 16-3 13-1zM730 1538l6 1 5 4 3 5-1 8-5 5-8 1-4-4-1-9 4-10zM779 604l9 1 17 3h22l11-2-2 2-14 4-2 2-9 3h-10l-15-3-4-2-4-5h7l-6-2zM127 1000l3 4 5 12 8 14 8 12-1 2-5-1-8-5-2-6-4-5-3-4-3-10-2-2v-4l4 2 1-4zM596 555l4 1 13 13h-3l-4-4 1 5h1l1 5 2 1v2l5 1 5 3 1 2 11 3-1 2 7 3h2v2h2l1 3-4-1-5-2-6-2-14-6-1-3-3-1-4-5-6-3-5-5-2-3 5 1-3-6-2-5zM1027 1448l4 1 5 3 1 2 1 14 2 5-2 6-6 11-5 1-2 6-12 17-9 11h2l3 9-1 4-4-7-7-3 3-5 5-4h2l2-4 10-13 8-14 5-12 3-9v-12l-4-3-4-1-3 14-2-4 2-7zM1332 467l2 1 1 7 8 15-1 3-7-13-2-1 6 26 5 31 1 9v11h-1l-1-8-2 3-5-1-2-1v-8l6-2v-14l-2-7-3-1-1 2v-3l3-4-1-9-3-13-2-9v2h-3v-11l2-4zM1091 1044l2 1-2 3 1 9v9l-2 7-3-1-3-5-2-11-1 5-3 7-1 33h-1l-2-41 9-11zM1907 931h1v10l-3 28-3 16-1 10 8-7 12-14 4-4-2 6-5 6-7 13-9 10-3 5h-2v2h-4l2-12 3-4 6-37 2-19zM1216 1487l2 1-2 2-3 7-5 12-4 8-6 10-3 7-2 1 1 4 2 1-5 4-2-1-1 3-2 21-2 4-3 1-6-2 1-2 6 2v-2h2l1-22 4-11 2-9 6-15 2-3v8l3-1 6-12 5-12zM1095 1376h5l1 10 1 5v7h-1l-3-16-4 1-2 5 1 13 4 30v14l-2 3-4 1-1 3-3 33-2 13h-1l1-14v-18l-1-3 2-2 1-4h-2l-1-4 3-4v-4l1-1h-1v-13h4l1 4v2h-2l1 8 4-1v-10l-3-25-2-12v-10l3-6 3-3zM1776 1437l1 2-6 20-4 9-4 14-3 2-4-4-2-3h-3l-4 16-2 14-1 16-1 31-2 14-1 3h-2l2-10 1-12 1-32 1-14 4-23 3-7 5-1 3-2 6-1 3-8 3-5 4-16zM961 1451h7l5 3 3 6-1 8-3 3-8 1-4-4-1-5v-9zM1173 1580h5l7 5 1 3v12l-2 3-4 1-6-3-2-4v-14zM1295 1455h2v2l5 1 1 2 1 10 8 1v-2h-2v-5l2-1 3 9v8l-2 5-4 2-3-6 2 8 2 2 4-1 2-5v-24h1l2 16v7l-5 10-6-1-3-5-3-14-2-13-4-1zM933 1396h4l1 3-3 7-1 4h-2l1 6 2 1-2 6v4l3 1 2-9 4-16 4-5 4-1-6 8-5 22-2 3-5-1-5-7-4 1-2 1 2-4 4-4 1-5-3-3 1-5 6-5zM1265 546h56l-1 5-9 1h-23l-12-1v-2l-13 2v-2l-2-2zM837 1456h1l1 43 1 14v12l-3 3 1-5v-8h-3l-4 1-1-1v-12l3-9 2-1v-35zM1076 505h2l7 18 9 20 2 5-5-4-3-1v-3l-4-3v-3h-2l-2-4-2-1-1 13h-1l-1-9zM737 1444l5 1 1 3-5 2v-2l-4 2v3l2 1v5l-5-3v18h-1l-1-14-6 2-2 3-2-1 3-6-7-2-4-1 1-4 16-4zM1123 575l5 1 13 4 15 1 13-2-4 3-3 2v2l-9 3h-16l-9-6v-3l1-1-6-3zM1268 936h1v22l-3 20-6 15-9 17-11 12-11 9-4 3h-4l-1 2-5-3 1-7 8-5 6-7v3l-6 8-1 5 5-2 10-8 10-10 9-16 6-14 3-15 1-8zM1659 1460l5 1 5 5 1 2v8l-4 6-6 1-3-1-1-2v-12l2-7zM1554 1537l7 2 3 3 2 4v8l-5 4-6-1-4-6-1-3v-10zM1694 1124h5l5 6 4 9 3 17v6h-1l-3-19-1 4-1 9-3 3-4-6 1-4-1-1-2-1v-13l4 1 3 3 2-3-6-2 2-1-2-5-8 1 1-3zM1846 1464h1l2 18 1 72 1 5v14l-2 1v-14l-1-10h-2l1 3-2 3v-2h-2l2 7-1 5h-1l-1-8-2-2-1-13 1-7v-8l2-1 1 9 1 10 2 1 1-17v-47zM1573 1292l4 2 8 9 4 8 3 14v10h-1l-3-19-1-5h-2l1 6 1 3h-2l-1 5-4-2-2-4v-10l-1-2-1-6-3-3 2-2-3-2-1 7h-1v-6zM1371 935l2 2 1 17-2 21-1 7h-1v-10l2-26h-2l-1 14-7 7-1-3-2 1-2 5-1-3 9-22 5-9zM479 1448l4 1 5 6 1 3v7l-3 5-1 1h-6l-3-4v-16zM387 1558l4 2 3 4-1 9 3 9 3 7 1 7 2 1h-2l1 6v19h-1l-2-27-4-11-5-10h-2l-8 22-3 1-2-1 1-2 3 1 1-6 1-9 2-2 2-4v-11zM120 665h13l25 5 14 5 16 9 1 2-7-2v-2l-5-2-14-6-25-6h-25l-10 2-6 2 1 1 9 1 6 3 3 2 9 3-3 1-29-9-2-3 10-3zM1023 1391h1l-1 10-1 4v7l2 2 9-16 6-6 3 1-7 6-2 4v3h2l-1 4-3 1v-2h-2l-3 13-1 4-5 4-5 2 4-23zM564 394l2 1-8 8-7 11-1 2-7 4h-2l1 4-1 2-6 1-6 7-6 8h-2v2l-2 1-3 7-8 7v-3l12-16 13-15zM1568 1447h2l2 13 5 50 2-4v10l-1-4h-2v13h-1l-3-44-2-19-1-2-1 1v34l1 10v15l-2 1v-15l-1-5v-52zM94 1206l6 3-1 4-5 6-8 3-2 6-7 1-9 10-2-1 1-5 2-7h1v5l5-3 9-11zM605 383h5l-1 5-6 8-3 3-5 8h-2l-2 5-4 4 2 1-3 1-1 3-5 3-4 4 2-5 11-17 7-9 5-6 1-3h-2v-3zM701 1140l2 1-16 16-9 13v3l6-1 10-6 9-1 3 4 2 8v14h-1l-2-17-3-7-9 2-9 7-3 6-1 1h-5l-2-7 2-7 8-10 7-8zM1361 505l2 3 6 24 4 24 4 5 13 9 1 2-5-2-8-5-1 3-4 1-2-4h-2v-2h-2v-9l1-2v-13l-2-7-1-8-2-1-1-10zM1893 819h1l2 25 1 34-1 34-1 11h2l1 5-1 2h-2l-3 16-3 20-2 4 1-11 5-41 1-14v-57l-1-15zM1019 439h1l-1 9-2 20 1 19 4 20 7 23-1 3-1-2-4-1-1-3h4l-2-5v-4l-5-1-1-6 3-1-3-3h-1l-3-2-1-6 1-3h3l-2-15v-22l3-17zM1034 1645l4 3 1 10v14l-4 6h-6l-3-9 2-6 6 1zM1492 1381l6 1-4 1-8 3-1 2v31l1 7v12l-3 4h-10l-3-3 1-4 3 4h6l-1-8-3-1 1-3-2-1 4-1v3l5 1-1-4-1-16v-20l3-5zM1118 313h2v3l-14 10-17 12-13 10-4 2 1-3 16-12 14-10 10-7-6 1-14 5-12 5-16 7-2-1 16-8 21-9zM151 1044l5 5 12 14 10 10 6 7-1 2-4-3h-3v-2l-3-1v-2l-5-2-1-3h-2l-7-8-4-6-1-7zM174 866h1v9l-2 26-1 20v30l4 36v7h-1l-3-20-1-12-4-1-2-8 2-2 1 2 1-1 1-41 3-39zM169 691l11 2 5 5 3 1-2-4 5 2 5 3 2 4-4-1-3-3-1 3 4 2 8 8 5 8-1 2-9-12-10-9-11-6-4-1 6 9 8 13-1 2-8-12-4-5-4-2-1-2v-6zM733 991l1 2-2 23-3 19-3 13-1 10-5 1-5-5v-37l-1-7v-10h1l2 16 1 34 2 4h2l6-25 3-23 1-14zM478 1409l4 2 2 4h-3v2l6 1v1l-5 1-1 16-4 2 2-3v-15l-1-1-1 7-7-2h-3l1-8 7-6zM1907 755h1v43l2 30v13h-1l-3-34-2 10-2-2-1-16 2-2 2 1 1-4-3 1 1-6 2-27zM1471 377l8 1 9 3 1 1 9 4 13 6-2 1-10-4-6-1 1 3 12 7 4 4-5-2-11-6-12-5-3-4-1-4-7-3zM1928 1038h2l-2 6-8 12-12 13-9 9-11 9-3 3h-2v2l-11 9-19 19-5 6v-3l7-8 18-18 8-7 13-11 15-14 9-11 1-2h2l2-5 4-6zM328 595l2 1-7 7-8 7-12 11-17 17-9 11-10 12-13 17-2 1v-3h2l1-5 3-1 2-4 11-14 8-10h2l2-4 29-29 8-7zM935 1235l5 1 11 4 3 2 7 2 3 3-5-1-7-1h-4v3l10 3 6 4-3 1-16-8-10-6-2-3zM450 1497h5l-4 1 3 39 1 2h-3l1 5 7-1 4-9v-23l-2-5 1-3 3 7 1 5v14l-2 10-3 6-8 1-3-2-2-7v-11l1-3zM1099 572l9 3v2l3 1 7 8 3 3-5-2-11-6 3 6-1 2-6-2h-3v-2l-3-1-2-5 2-2 2 5 2 1-2-6v-4zM985 407l1 2v3l-1 7-4 9-3 5-2 2h-3l-3 11-5 22h-1l1-11 6-21 5-13 8-15zM1413 355h12l26 2 6 1v1l-15-1h-34l-3 1 1 2-1 2 4 2 16 6-4 1-29-10 2-3 12-3z"></path>
  <path fill="#fd0100" d="M1033 1504v3l-3 5v2l5-2 9-8v3l-5 5-11 8-3 4-2 1-2 4-5 1-2-5 2-5 4-1v-3l5-1zM933 507h1l1 6v20l-2 11h3l1 3-4 5 1 7-2 7h-2l-1 5-5 5 2-10 5-21 2-17zM709 321l4 2-4 2-1-1h-6l-21 6-15 5-14 6-17 9-14 7-2-1 14-8 26-13 18-7 22-6zM1120 1440l3 3 1 12-3 7-4 6h-6l-4-3v-7l1-5 5 5h5l3-1zM419 1497h1l-1 21v24l2 15v5l-1-2h-2l-2 4v5h2v4l2 1v4l-4 2v-6l-5-2-1-4 2-1v-5h3l2-5 1-2-1-4v-34zM780 1499l6 3 3 4 1 8-1 3-3 2-5-1-2-3v-15zM1329 1369h5l3 4-1 4-2-5-5-1-1 23-3 9-2 2-10 1v31l2 12v6h-1l-3-17-1-12v-11l1-10 1-2 4-1 5 1 2-1 3-12v-14zM919 1424l2 1-8 11-7 9-4 4-2 31-2 7-3 3-5-1v-3l4 2 3-5 1-14-1-9 1-5-2-4 4-2 1-5 8-6zM116 1134l2 1-10 10-5 6-5 5-4 10-4 1v2l-3 2-3 7-5 1-2 5-3 2 2-5 10-14 8-10 12-13zM456 1503h3l2 6v27h-2l-1 2v-2l-3-1v-25zM130 1039l4 4 4 6v-6l5 5 2 3 2 5 4 4 2 4 1 4 2 5 2 1h-3l-8-9-10-14-7-10zM1933 667l5 1 3 1-1 3-5 4-2 4h-2l-5 10-10 8-4 3 2-5 9-11 9-10 3-5-9 2-4 1 3-3zM648 366l2 1-13 12-8 7-9 10-9 11-10 14-10 16-1-2 8-14 10-14 12-14 9-10 9-9zM1373 1208h1v36l2 1v13l-2 4-3-1-5 14-1-3 5-19zM782 897h8v3l-10 1v3l-6 3h-10l-6-2v-2l19-5zM1305 432l5 3 4 2v4l3 1v2h2l1 3-1 2h2l2 3 4 1 5 9v5l-5-5h-3v-4h2l-1-4-5-1-5-3-6-7-1-4-3-5zM1178 1468h1v29l-3 12h-2l-1 5v23l1 6 1 25-2-3-3-29v-18l3-10 4-13zM765 1222h2v2l2 1-8 7-3 1v2h-2l1 3-1 3-4 2-4 13-1-4 3-12 3-17h1l1 6 5-3zM1358 1160l1 4-3 10v4l4-2 9-10 6-4h6l1 2h-4l3 3v3l-3-1-4-2h-3l-2 4-12 11-1 2h-2v2l4 1-4 2-2-4 1-9zM1968 662l2 1-12 11-7 6-7 8-12 15-12 18-6 14-1-4 3-8 5-8 12-17 11-13 7-8 8-8zM125 1199h2v11h2l-1 7-3 2v19l1 18 1 11h-1l-3-16-1-10v-16l2-16 1-6-2-1zM1022 383h2l1 3-4 8-2 5v7l-2 4h-2l-3 9h-2l-2 5-1-3 6-15 5-10 1-5-8 7v-3l7-8zM1625 1684l2 1-1 6v8l-1 7-4-1-3-5-1-9 1-3h2v-3zM785 1456l5 1 6 2 8 5-2 5-1 2 2 1-5-1-3-3 2-4-3 1-5-2h-2l-1 7-2-3 1-8zM248 1478l3 1h-2l-3 11v10l1 13v9l1 6 4-1 2-4 3-3 2-6 1-10h1v11l-4 10-4 5-5 1-4-3v-39l2-9zM1036 591l5 2 2 6 3 1 3 6 5 3-2 1-13-7 4 10-1 3-3-4-4-13v-7z"></path>
  <path fill="#fd0100" d="m1372 1176 3 1 1 4h-2l-1 26h-1l-1-11-1-1-8 24-1-4 5-16 1-3 1-12 1-3h2zM160 707l6 5 10 15 4 7 2 6h2l-1 3-1 25-1 11-2 3 1-31-3-16-9-16-8-10zM1710 1472h1l-1 12-1 13v16l2 17 2 12 1-1 3-23h1v9l-2 16-1 3-3-1-3-13-3-23 2-26zM282 1446l6 1 1 5v7l-2 2h-6l-2-3v-9zM1031 540h1l3 22 7 14v3l-4-1-3-1-2-3v-9l-1-2-2 6-2-4 1-3 2-2-2-14h2zM1820 980l1 3-6 14-12 21-15 20v7l-2-1-1-6 6-8 7-10 9-14 8-14zM106 849h2v27l4 27 5 20 2 5-1 3-5-14-4-16-3-19v-29l-3 4 1-6zM1454 582h4v3h2v2h2v2l3 1 2 5 4 3 1 4-4 1-3 1-2-5 1-3h-5l-3-8-3-2zM1354 525l2 2 1 12h2l1-8 1-3h2l1 6 1 5-2 7h-3l-1 12h-1l-4-29zM1197 1562h1l2 18 1 1v5l4 1-1 4-3-1-1 9-1 2-1 12h-1zM28 1361h1l-1 32 2 6v14l-3 9h-1v-41zM972 680h1l-1 30-1 5h-1v-20l-4 7-3-3-3 2 2-5 9-14zM1992 630h30l2 2-4 2v-1l-14-1-31 2-19 4-7 2-4-1 17-5 21-3zM408 698h1l-1 9-3 25v18l1 2h2l4-18h1l-1 9-2 10-2 3-4-1-2-10v-12l5-31zM1809 622l5 5 3 1v3h3l2 5 5 2-1 5h-3l1 3h-3l-3-4v-5l-7-4-1-5zM404 1532h1l4 42 4 7-2 6-4 1-3-10 1-3 2 1-3-34zM897 1015l4 1 7 15-1 2-5-7v-2h-3l2 17 1 5v12h-1l-2-15-4-24z"></path>
  <path fill="#fd0100" d="m1824 633 6 5 9 11 8 10 5 7-1 2-2-4-3-1-3-5h-3v-2l-3-1v-2h-3l-3-6-2-6-5-6zM404 1663l2 1v2h2v-3l4 1v2l3 3-1 5-8-1-1 5 3 4-4-1-2-4v-10zM732 1542h4l-1 4-1 3 3-1v4l-5 6 2 4-6-1-2-3v-4h2l2-11zM1846 1126v3l-9 12-13 21-12 25-1-4 14-28 8-13 3-5h2l2-4zM1898 666l2 1-11 11-2 4-3 3-4 5-5 2v2l-5 1-4-6-3-4 1-2 6 7 5-2 12-11zM721 1449l4 1-4 2 3 3 1 3 4-2 2 3v15h-1l-1-14-6 2-2 3-2-1 3-6-7-2-4-1 1-4zM125 1431l2 2v9l-6 8-1 1-7-1 1-3 3-5 6-4zM1608 638l1 3-8 16-7 12-10 14-12 16-5 4 2-4 4-5 6-8 8-11 10-15 8-15zM1368 1299h1l-2 29v27l2 8 2 1v-6h1v8h-4v-2h-2l-2-13 1-27 2-22zM887 1511l4 2 5 5v2h2l1 4-2 2h-5l-6-7v-6zM1071 1506l4 2v8h5l1-6h1l-1 7-9 1-3 1-1 2-1 13h-1v-16l3-9zM869 1423l1 3 2 1-1 2h-1l-2 16h-1v-16l-4 5-2 2v-3l-3-1-1 3-2 1-3 5-1-2 3-6h2l2-4 3-3 6-2zM177 1349l5 3v1l9 3 5 2-2 4-12-2-5-5-2-3z"></path>
</svg><style>@media (prefers-color-scheme: light) { :root { filter: none; } }
@media (prefers-color-scheme: dark) { :root { filter: none; } }
</style></svg>